<?xml version="1.0" standalone="no"?>
<!DOCTYPE svg PUBLIC "-//W3C//DTD SVG 20010904//EN"
 "http://www.w3.org/TR/2001/REC-SVG-20010904/DTD/svg10.dtd">
<svg version="1.0" xmlns="http://www.w3.org/2000/svg"
 width="512.000000pt" height="512.000000pt" viewBox="0 0 512.000000 512.000000"
 preserveAspectRatio="xMidYMid meet">

<g transform="translate(0.000000,512.000000) scale(0.100000,-0.100000)"
fill="#000000" stroke="none">
<path d="M216 4987 c-22 -12 -53 -39 -70 -60 l-31 -39 0 -2327 0 -2328 27 -36
c16 -19 43 -46 60 -59 l33 -23 960 -3 c663 -2 971 0 997 8 50 14 97 56 119
105 17 37 19 78 19 601 l0 561 118 43 c64 24 136 53 159 64 28 14 420 396
1195 1165 634 630 1164 1160 1178 1179 35 48 41 152 12 208 -28 55 -834 852
-881 871 -50 21 -140 19 -185 -4 -21 -11 -380 -359 -817 -792 l-779 -772 -2
765 -3 764 -30 43 c-16 23 -50 53 -74 66 l-44 23 -961 0 -961 0 -39 -23z
m1694 -1219 l0 -833 -181 -181 -181 -181 -244 -644 c-151 -397 -247 -664 -251
-695 -14 -129 76 -224 213 -224 42 0 96 16 256 76 112 42 245 91 296 110 l92
33 0 -354 0 -355 -690 0 -690 0 0 340 0 340 165 0 c176 0 215 8 263 53 46 42
64 94 60 166 -4 74 -24 112 -85 159 -36 27 -37 27 -220 30 l-183 3 0 370 0
369 159 0 c91 0 172 5 192 11 89 30 138 102 139 200 0 77 -31 135 -95 174 -48
30 -49 30 -222 33 l-173 4 0 368 0 369 183 3 c203 3 215 7 274 85 38 49 45
151 15 209 -50 97 -94 114 -307 114 l-165 0 0 340 0 340 690 0 690 0 0 -832z
m2355 422 l240 -240 -55 -54 c-30 -30 -477 -473 -993 -985 l-939 -931 -244
238 -244 237 993 987 c545 543 994 987 997 987 3 1 113 -107 245 -239z m-2148
-2432 c-12 -6 -177 -69 -420 -159 l-77 -29 13 33 c8 17 51 132 98 254 l84 223
157 -157 c107 -107 154 -160 145 -165z"/>
</g>
</svg>
