<svg xmlns:dc="http://purl.org/dc/elements/1.1/" xmlns:cc="http://creativecommons.org/ns#" xmlns:rdf="http://www.w3.org/1999/02/22-rdf-syntax-ns#"  xmlns="http://www.w3.org/2000/svg" version="1.1" x="0px" y="0px" viewBox="0 0 100 100" xml:space="preserve" width="100%" height="100%" xmlns:xlink="http://www.w3.org/1999/xlink"><rect id="svgEditorBackground" x="0" y="0" width="100" height="100" style="fill:none;stroke:none;"/>
   <g><circle r="3.9234731" cy="50.21946" cx="50.027821" style="color:#000000;clip-rule:nonzero;display:inline;overflow:visible;visibility:visible;opacity:1;isolation:auto;mix-blend-mode:normal;color-interpolation:sRGB;color-interpolation-filters:linearRGB;solid-color:#000000;solid-opacity:1;fill:#000000;fill-opacity:1;fill-rule:nonzero;stroke:#ffffff;stroke-width:2;stroke-linecap:round;stroke-linejoin:round;stroke-miterlimit:4;stroke-dasharray:none;stroke-dashoffset:0;stroke-opacity:1;color-rendering:auto;image-rendering:auto;shape-rendering:auto;text-rendering:auto;enable-background:accumulate"/><path d="M4.9734042,54.423642l31.7671398,0c2.3223490000000027,0,4.2041850000000025,-1.8818359999999998,4.2041850000000025,-4.2041850000000025c0,-2.3223490000000027,-1.8818359999999998,-4.204183999999998,-4.2041850000000025,-4.204183999999998l-31.7671398,0c-2.3223488999999997,-0.0002819999999985612,-4.20418433,1.8815540000000013,-4.20418433,4.204183999999998c0,2.3226310000000012,1.8818354300000006,4.2041850000000025,4.20418433,4.2041850000000025Z" style="color:#000000;clip-rule:nonzero;display:inline;overflow:visible;visibility:visible;opacity:1;isolation:auto;mix-blend-mode:normal;color-interpolation:sRGB;color-interpolation-filters:linearRGB;solid-color:#000000;solid-opacity:1;fill:red;fill-opacity:1;fill-rule:nonzero;stroke:#ffffff;stroke-width:3;stroke-linecap:round;stroke-linejoin:round;stroke-miterlimit:4;stroke-dasharray:none;stroke-dashoffset:0;stroke-opacity:1;color-rendering:auto;image-rendering:auto;shape-rendering:auto;text-rendering:auto;enable-background:accumulate"/><path d="M54.232003,5.1650429c0,-2.3223488999999997,-1.8818359999999998,-4.20418433,-4.204183999999998,-4.20418433c-2.3223490000000027,0,-4.2041850000000025,1.8818354300000006,-4.2041850000000025,4.20418433l0,31.767140100000002c0,2.3223490000000027,1.8818359999999998,4.204183999999998,4.2041850000000025,4.204183999999998c2.322347999999998,0,4.204183999999998,-1.8818350000000024,4.204183999999998,-4.204183999999998l0,-31.7671401Z" style="fill:red;stroke:#ffffff;stroke-width:3;stroke-linecap:round;stroke-linejoin:round;stroke-miterlimit:4;stroke-dasharray:none;stroke-opacity:1;fill-opacity:1"/><path d="M99.287826,50.219457c0,-2.3223490000000027,-1.8818349999999953,-4.204183999999998,-4.204183999999998,-4.204183999999998l-31.767139999999998,0c-2.3223490000000027,0,-4.204183999999998,1.8818350000000024,-4.204183999999998,4.204183999999998c0,2.3223490000000027,1.8818350000000024,4.2041850000000025,4.204183999999998,4.2041850000000025l31.767139999999998,0c2.3206579999999946,0,4.204183999999998,-1.8818359999999998,4.204183999999998,-4.2041850000000025Z" style="color:#000000;clip-rule:nonzero;display:inline;overflow:visible;visibility:visible;opacity:1;isolation:auto;mix-blend-mode:normal;color-interpolation:sRGB;color-interpolation-filters:linearRGB;solid-color:#000000;solid-opacity:1;fill:red;fill-opacity:1;fill-rule:nonzero;stroke:#ffffff;stroke-width:3;stroke-linecap:round;stroke-linejoin:round;stroke-miterlimit:4;stroke-dasharray:none;stroke-dashoffset:0;stroke-opacity:1;color-rendering:auto;image-rendering:auto;shape-rendering:auto;text-rendering:auto;enable-background:accumulate"/><path d="M45.823352,95.27359c0,2.3223490000000027,1.8818359999999998,4.204183999999998,4.2041850000000025,4.204183999999998c2.3223490000000027,0,4.204183999999998,-1.8818349999999953,4.204183999999998,-4.204183999999998l0,-31.767139999999998c0,-2.3223490000000027,-1.8818350000000024,-4.2041850000000025,-4.204183999999998,-4.2041850000000025c-2.3223490000000027,0,-4.2041850000000025,1.8818359999999998,-4.2041850000000025,4.2041850000000025l0,31.767139999999998Z" style="color:#000000;clip-rule:nonzero;display:inline;overflow:visible;visibility:visible;opacity:1;isolation:auto;mix-blend-mode:normal;color-interpolation:sRGB;color-interpolation-filters:linearRGB;solid-color:#000000;solid-opacity:1;fill:red;fill-opacity:1;fill-rule:nonzero;stroke:#ffffff;stroke-width:3;stroke-linecap:round;stroke-linejoin:round;stroke-miterlimit:4;stroke-dasharray:none;stroke-dashoffset:0;stroke-opacity:1;color-rendering:auto;image-rendering:auto;shape-rendering:auto;text-rendering:auto;enable-background:accumulate"/></g></svg>