<?xml version="1.0" standalone="no"?>
<!DOCTYPE svg PUBLIC "-//W3C//DTD SVG 20010904//EN"
 "http://www.w3.org/TR/2001/REC-SVG-20010904/DTD/svg10.dtd">
<svg version="1.0" xmlns="http://www.w3.org/2000/svg"
 width="980.000000pt" height="980.000000pt" viewBox="0 0 980.000000 980.000000"
 preserveAspectRatio="xMidYMid meet">

<g transform="translate(0.000000,980.000000) scale(0.100000,-0.100000)"
fill="#000000" stroke="none">
<path d="M1025 9338 c-8 -29 -105 -372 -215 -763 -110 -390 -203 -718 -206
-727 -5 -17 204 -18 4285 -18 l4291 0 0 367 0 366 -3076 -4 -3077 -4 -28 80
c-16 44 -42 118 -59 165 -16 47 -43 123 -60 170 -17 47 -50 141 -74 210 -24
69 -51 143 -59 165 l-14 40 -846 3 -846 2 -16 -52z"/>
<path d="M57 6867 c-15 -12 -27 -30 -27 -39 0 -9 -5 -20 -10 -23 -6 -4 -8 -14
-5 -24 4 -15 48 -259 135 -751 29 -166 56 -320 105 -595 15 -82 40 -224 56
-315 16 -91 38 -217 50 -280 11 -63 33 -189 49 -280 16 -91 41 -228 55 -305
26 -149 58 -326 105 -595 16 -91 52 -293 80 -450 28 -157 61 -346 75 -420 13
-74 35 -202 50 -285 15 -82 39 -222 55 -310 16 -88 40 -227 55 -310 43 -241
74 -418 105 -595 16 -91 38 -214 49 -275 11 -60 31 -177 46 -260 14 -82 28
-162 31 -178 l6 -27 3778 0 3778 0 6 28 c3 15 17 95 31 177 15 83 35 200 46
260 11 61 33 184 49 275 31 177 62 354 105 595 15 83 39 222 55 310 16 88 40
228 55 310 15 83 37 211 50 285 14 74 47 263 75 420 28 157 64 359 80 450 47
269 79 446 105 595 14 77 39 214 55 305 16 91 38 217 49 280 12 63 34 189 50
280 16 91 41 233 56 315 49 275 76 429 105 595 16 91 52 293 81 450 58 318 61
356 33 388 l-18 22 -4832 0 -4831 0 -26 -23z m4885 -774 c17 -16 45 -41 62
-57 17 -16 41 -35 54 -43 12 -9 22 -21 22 -27 0 -7 15 -23 33 -36 43 -32 77
-62 157 -140 78 -76 166 -154 180 -158 6 -2 10 -10 10 -17 0 -8 15 -24 33 -36
17 -13 41 -32 53 -43 11 -12 31 -30 45 -42 13 -12 31 -30 40 -40 8 -10 39 -39
68 -64 76 -65 131 -119 131 -128 0 -4 13 -15 28 -24 16 -9 72 -59 125 -110 53
-51 135 -129 183 -173 48 -44 101 -93 118 -109 17 -16 41 -35 54 -43 12 -9 22
-21 22 -28 0 -7 11 -20 25 -29 13 -9 37 -28 53 -44 178 -167 284 -262 294
-262 4 0 8 -6 8 -13 0 -6 23 -32 52 -57 90 -78 117 -103 183 -167 35 -33 80
-73 99 -88 20 -15 36 -33 36 -40 0 -7 4 -15 10 -17 13 -4 102 -82 175 -153 34
-33 86 -80 115 -105 29 -25 58 -51 64 -58 22 -26 44 -47 83 -82 65 -57 87 -78
99 -92 6 -7 34 -33 63 -58 50 -43 112 -103 137 -132 7 -7 36 -33 65 -58 49
-42 64 -56 96 -92 6 -7 33 -31 59 -53 26 -22 61 -52 77 -67 l30 -28 -952 0
-953 0 8 -785 7 -785 -1407 0 -1406 0 0 785 0 785 -937 2 -938 3 29 25 c95 81
124 108 152 142 6 7 35 33 64 58 29 25 81 72 116 105 34 33 103 98 154 145 50
47 121 114 159 150 37 36 89 83 115 105 27 22 65 57 85 78 20 22 47 49 60 60
14 12 38 35 55 51 17 16 41 35 54 43 12 9 22 21 22 28 0 7 12 21 28 30 29 19
58 45 162 145 81 78 167 154 180 158 6 2 10 9 10 16 0 7 15 23 33 36 36 27 57
46 194 178 53 51 109 100 125 109 15 10 28 22 28 28 0 5 23 30 52 55 29 25 82
74 119 110 37 36 88 83 114 105 47 39 69 61 91 87 6 7 35 33 64 58 52 44 74
65 96 92 6 7 35 33 64 58 29 25 80 72 115 105 89 86 168 155 177 155 5 0 8 5
8 12 0 12 53 64 110 107 19 14 48 41 65 60 16 18 41 43 54 55 14 11 35 31 48
43 12 12 38 34 58 49 19 14 35 33 35 40 0 8 4 14 8 14 4 0 26 17 49 38 124
114 136 119 185 75z"/>
</g>
</svg>
