<?xml version="1.0" standalone="no"?>
<!DOCTYPE svg PUBLIC "-//W3C//DTD SVG 20010904//EN"
 "http://www.w3.org/TR/2001/REC-SVG-20010904/DTD/svg10.dtd">
<svg version="1.0" xmlns="http://www.w3.org/2000/svg"
 width="550.000000pt" height="550.000000pt" viewBox="0 0 550.000000 550.000000"
 preserveAspectRatio="xMidYMid meet">

<g transform="translate(0.000000,550.000000) scale(0.100000,-0.100000)"
fill="#000000" stroke="none">
<path d="M2655 5297 c-133 -53 -185 -148 -185 -334 0 -102 5 -96 -80 -108 -86
-13 -280 -65 -377 -101 -587 -220 -1047 -680 -1267 -1267 -36 -97 -88 -291
-101 -377 -12 -82 -3 -77 -133 -82 -133 -5 -186 -22 -244 -80 -57 -57 -73
-101 -73 -198 0 -97 16 -141 73 -198 58 -58 111 -75 244 -80 130 -5 121 0 133
-82 13 -86 65 -280 101 -377 220 -587 680 -1047 1267 -1267 97 -36 291 -88
377 -101 82 -12 77 -3 82 -133 5 -133 22 -186 80 -244 57 -57 101 -73 198 -73
97 0 141 16 198 73 58 58 75 111 80 244 5 130 0 121 82 133 86 13 280 65 377
101 587 220 1047 680 1267 1267 36 97 88 291 101 377 12 82 3 77 133 82 133 5
186 22 244 80 57 57 73 101 73 198 0 97 -16 141 -73 198 -58 58 -111 75 -244
80 -130 5 -121 0 -133 82 -4 25 -20 98 -36 162 -185 751 -796 1362 -1547 1547
-64 16 -137 32 -162 36 -82 12 -77 3 -82 133 -3 90 -9 128 -25 163 -25 55 -76
108 -129 134 -47 23 -175 30 -219 12z m-183 -1279 c3 -279 3 -284 28 -332 83
-163 297 -206 432 -86 80 70 85 93 91 413 3 153 8 281 11 284 10 11 187 -38
291 -79 452 -178 799 -558 940 -1027 12 -42 26 -95 29 -118 l7 -41 -233 -4
c-221 -3 -235 -4 -278 -26 -67 -35 -117 -89 -140 -149 -53 -141 4 -284 140
-355 43 -22 57 -23 278 -26 l233 -4 -7 -41 c-3 -23 -17 -76 -29 -118 -141
-469 -488 -849 -940 -1027 -103 -41 -281 -90 -291 -80 -3 4 -8 125 -11 270 -5
233 -8 268 -26 311 -37 89 -144 157 -247 157 -101 0 -203 -64 -250 -156 -25
-48 -25 -54 -28 -317 -3 -213 -6 -267 -17 -267 -7 0 -56 11 -109 25 -539 140
-981 582 -1121 1121 -14 53 -25 102 -25 109 0 11 54 14 263 17 249 3 265 4
313 26 60 27 103 69 136 132 18 35 23 61 23 120 0 59 -5 85 -23 120 -33 63
-76 105 -136 132 -48 22 -64 23 -313 26 -209 3 -263 6 -263 17 0 7 11 56 25
109 140 538 579 978 1117 1121 51 13 101 24 110 25 15 0 17 -26 20 -282z"/>
</g>
</svg>
