<?xml version="1.0" standalone="no"?>
<!DOCTYPE svg PUBLIC "-//W3C//DTD SVG 20010904//EN"
 "http://www.w3.org/TR/2001/REC-SVG-20010904/DTD/svg10.dtd">
<svg version="1.0" xmlns="http://www.w3.org/2000/svg"
 width="594.000000pt" height="980.000000pt" viewBox="0 0 594.000000 980.000000"
 preserveAspectRatio="xMidYMid meet">

<g transform="translate(0.000000,980.000000) scale(0.100000,-0.100000)"
fill="#000000" stroke="none">
<path d="M850 9781 c-218 -48 -383 -143 -549 -316 -128 -134 -203 -261 -258
-440 -25 -84 -27 -102 -27 -265 0 -161 3 -182 27 -263 32 -103 80 -206 138
-297 31 -48 474 -498 1683 -1707 l1641 -1643 -1596 -1597 c-1012 -1013 -1613
-1622 -1641 -1663 -63 -90 -123 -213 -155 -317 -25 -81 -27 -102 -27 -263 -1
-154 2 -185 22 -254 33 -115 75 -207 136 -299 166 -254 383 -392 689 -442 230
-37 457 -6 659 89 166 78 110 25 2136 2049 2093 2092 1950 1943 2065 2172 107
216 142 368 134 590 -8 222 -50 373 -148 543 -25 43 -519 543 -2044 2070
-1105 1107 -2039 2036 -2075 2063 -85 65 -264 153 -365 180 -116 31 -329 36
-445 10z"/>
</g>
</svg>
