<?xml version="1.0" encoding="utf-8"?>
<!-- Svg Vector Icons : http://www.onlinewebfonts.com/icon -->
<!DOCTYPE svg PUBLIC "-//W3C//DTD SVG 1.1//EN" "http://www.w3.org/Graphics/SVG/1.1/DTD/svg11.dtd">
<svg version="1.1" xmlns="http://www.w3.org/2000/svg" xmlns:xlink="http://www.w3.org/1999/xlink" x="0px" y="0px" viewBox="0 0 1000 1000" enable-background="new 0 0 1000 1000" xml:space="preserve">
<metadata> Svg Vector Icons : http://www.onlinewebfonts.com/icon </metadata>
<g><path d="M484.3,990h-4.5C411.4,988,363,937.5,365,870c1.9-66.3,51.3-114.5,117.6-114.5l4,0.1c70.4,2.1,118.2,52.1,116,121.5C600.8,943.5,552,990,484.3,990L484.3,990z M772.3,418.4c-16.2,22.9-51.5,51.3-96.2,86.1l-49.1,34c-27,21-43.2,40.7-49.3,60.1c-5,15.4-7.2,19.3-7.6,50.4l-0.1,8H382.4l0.6-16c2.3-65.3,3.9-103.6,31-135.4c42.5-49.8,136.1-110.1,140-112.6c13.4-10.2,24.7-21.6,33.1-33.9c19.7-27.1,28.4-48.5,28.4-69.4c0-29.2-8.7-56.1-25.7-80.1c-16.4-23.2-47.7-34.9-92.9-34.9c-44.8,0-75.5,14.3-93.9,43.5c-18.9,30-28.5,61.4-28.5,93.6v8H181.2l0.3-8.4c5-118.5,47.3-203.8,125.6-253.5C356.4,26,417.6,10,489.1,10c93.5,0,172.6,22.8,234.8,67.5c63,45.4,94.9,113.5,94.9,202.3c0,49.7-15.7,96.4-46.5,138.8L772.3,418.4L772.3,418.4z"/></g>
</svg>